<svg width="39" height="48" viewBox="0 0 39 48" fill="none" xmlns="http://www.w3.org/2000/svg">
<g clip-path="url(#clip0)">
<path d="M26.3838 9.36709L25.6329 12.1519C31.6906 14.7342 35.9461 20.8101 35.9461 27.8481C35.9461 37.2658 28.3864 44.9114 19.0745 44.9114C9.76251 44.962 2.20282 37.3165 2.20282 27.8481C2.20282 20.4051 6.95892 14.0253 13.5173 11.7468L14.6688 8.70886C6.20796 10.9367 0 18.7342 0 28.0506C0 39.0886 8.71117 48 19.525 48C30.3389 48 39.0501 39.0886 39.0501 28.0506C39 19.4937 33.7433 12.2025 26.3838 9.36709Z" fill="#E8441E"/>
<path d="M33.543 27.1898L31.7908 27.1392C31.7407 27.1392 31.6906 27.0886 31.6906 27.0379L32.1412 21.519C32.1412 21.4683 32.1412 21.4177 32.0912 21.4177C31.6406 21.1645 29.0372 19.6455 24.3312 18.481C24.2811 18.481 24.2311 18.4304 24.2311 18.3291C24.3312 17.6202 24.3813 17.1645 24.4313 16.962C24.4313 16.9114 24.3813 16.8607 24.3312 16.8101C24.0308 16.7088 23.0796 16.4557 21.9281 16.405C21.8781 16.405 21.7779 16.3544 21.828 16.2531C22.1284 14.9873 23.38 9.46833 23.6303 8.45567C23.6303 8.35441 23.5802 8.30377 23.5302 8.30377L20.0757 8.60757C19.9756 8.60757 19.9256 8.55694 19.9756 8.45567L21.828 0.151875C21.8781 -2.36339e-05 21.6778 -0.0506565 21.5777 0.0506093L16.3209 11.1392C16.2709 11.2405 16.3209 11.3417 16.4211 11.2911L20.0257 11.1392C20.1258 11.1392 20.1759 11.2405 20.1258 11.2911L18.724 15.8987C18.724 15.9493 18.6739 16 18.6239 16L16.4211 16.0506C16.371 16.0506 16.3209 16.1012 16.3209 16.1519L16.2709 17.519C16.2709 17.5696 16.2208 17.6202 16.1707 17.6202C15.4198 17.6709 10.7638 17.8734 7.91015 18.8354C7.86008 18.8354 7.81002 18.8861 7.81002 18.9367L7.30938 24.3544C7.30938 24.405 7.25931 24.4557 7.15918 24.4557L5.35687 24.3038C5.30681 24.3038 5.25675 24.3544 5.20668 24.405L4.65598 29.3164C4.65598 29.3671 4.70604 29.4683 4.7561 29.4683L6.50835 29.6202C6.55841 29.6202 6.60848 29.6709 6.60848 29.7721L6.20796 33.8228C6.20796 33.8734 6.20797 33.924 6.25803 33.924C7.15918 34.481 17.7728 40.6076 30.439 36.6582C30.4891 36.6582 30.5392 36.6076 30.5392 36.5569C30.7394 34.8354 30.8896 33.0126 30.9397 32.5569C30.9397 32.5063 30.9897 32.4557 31.0899 32.4557L32.9422 32.6582C32.9923 32.6582 33.0424 32.6076 33.0924 32.5569L33.6431 27.4936C33.6431 27.2405 33.5931 27.1898 33.543 27.1898ZM27.4352 33.6709C27.4352 33.6709 18.7741 36.1012 9.91271 31.8987C10.2131 28.7595 10.8639 21.519 10.8639 21.519C10.8639 21.519 19.9756 19.5443 28.4365 23.4936L27.4352 33.6709Z" fill="#E8441E"/>
<path d="M15.6701 25.2151C15.6701 25.2151 15.4698 25.1645 15.3196 25.2151C15.1695 25.2151 15.0693 25.3164 14.9191 25.367C14.6187 25.5189 12.1656 26.4303 13.1168 27.6455C13.5674 28.1012 13.9679 28.1518 14.6688 27.7468C15.0693 27.4936 15.3697 27.443 15.4198 27.443C15.4198 27.2404 15.6701 25.2151 15.6701 25.2151Z" fill="#E8441E"/>
<path d="M15.62 25.2152C15.62 25.2152 15.8203 25.2152 15.9705 25.2658C16.1207 25.3165 16.2208 25.4177 16.3209 25.519C16.5712 25.7722 18.7741 27.1393 17.5725 28.1519C17.0719 28.5063 16.6213 28.4557 16.0205 27.8988C15.6701 27.595 15.4198 27.4431 15.3697 27.4431C15.4198 27.2405 15.62 25.2152 15.62 25.2152Z" fill="#E8441E"/>
<path d="M23.2298 26.0253C23.2298 26.0253 23.0295 25.9747 22.8793 26.0253C22.7291 26.0253 22.629 26.1266 22.4788 26.1772C22.1784 26.3291 19.7253 27.2405 20.6765 28.4557C21.1271 28.9114 21.5276 28.962 22.2285 28.557C22.629 28.3038 22.9294 28.2532 22.9795 28.2532C22.9795 28.0506 23.2298 26.0253 23.2298 26.0253Z" fill="#E8441E"/>
<path d="M23.1797 26.0254C23.1797 26.0254 23.38 26.0254 23.5302 26.076C23.6804 26.1267 23.7805 26.2279 23.8806 26.3292C24.1309 26.5824 26.3338 27.9494 25.1322 28.9621C24.6316 29.3165 24.181 29.2659 23.5802 28.7089C23.2298 28.4051 22.9795 28.2532 22.9294 28.2532C22.9795 28.0507 23.1797 26.0254 23.1797 26.0254Z" fill="#E8441E"/>
<path d="M5.90758 40.7089C5.90758 40.7089 17.4724 36.0506 29.9384 43.1393C26.0834 45.2152 22.3286 46.3291 22.3286 46.3291L11.6149 44.6076L6.8588 42.0253L5.90758 40.7089Z" fill="#E8441E"/>
</g>
<defs>
<clipPath id="clip0">
<rect width="39" height="48" fill="white"/>
</clipPath>
</defs>
</svg>
